<?xml version="1.0" encoding="UTF-8"?>
<svg id="Layer_2" data-name="Layer 2" xmlns="http://www.w3.org/2000/svg" viewBox="0 0 99.64 88.69">
  <defs>
    <style>
      .cls-1 {
        fill: #435a85;
      }
    </style>
  </defs>
  <g id="Layer_1-2" data-name="Layer 1">
    <path class="cls-1" d="M98.44,75.27l-17.87-30.95-10.31-17.86L57.56,4.47c-2.47-4.27-7.93-5.74-12.2-3.27-1.32,.76-2.37,1.81-3.12,3.02-.02,.04-.04,.07-.07,.11,0,0-.01,.02-.01,.02h0s-.03,.06-.04,.08c0,0,0,0,0,0-.01,.02-.02,.04-.03,.06L1.2,75.3c-2.47,4.27-1,9.73,3.27,12.2,4.27,2.47,9.73,1,12.2-3.27L47.87,30.18c.87-1.51,3.04-1.51,3.91,0l7.51,13.01c.4,.7,.4,1.56,0,2.26l-17.23,29.85c-2.47,4.27-1,9.73,3.27,12.2,4.27,2.47,9.73,1,12.2-3.27l10.77-18.65c.87-1.51,3.04-1.51,3.91,0l10.76,18.63c2.47,4.27,7.93,5.74,12.2,3.27,4.27-2.47,5.74-7.93,3.27-12.2"/>
  </g>
</svg>