<?xml version="1.0" encoding="UTF-8"?>
<svg id="Layer_2" data-name="Layer 2" xmlns="http://www.w3.org/2000/svg" viewBox="0 0 190.52 196.5">
  <g id="Layer_1-2" data-name="Layer 1">
    <path d="M95.57,5.99c52.79,.13,95.07,42.64,94.95,95.47-.12,52.96-42.73,95.26-95.76,95.04C42.01,196.29-.23,153.65,0,100.84,.23,48.01,42.7,5.86,95.57,5.99Zm11.1,98.76s-.02,0-.03,0c0,12.62-.25,25.24,.15,37.85,.12,3.79,1.33,7.96,3.31,11.18,4.52,7.38,13.45,10.22,21.61,7.77,8.23-2.47,13.76-9.63,13.79-18.41,.09-25.62,.04-51.24,.02-76.86,0-1.41-.07-2.85-.37-4.22-2.21-9.79-11.15-15.93-21.69-14.96-9.11,.84-16.63,9-16.76,18.63-.17,13-.04,26.01-.04,39.01ZM145.52,19.61C145.53,8.57,137.04,0,126.1,0c-10.95,0-19.46,8.58-19.43,19.59,.03,10.8,8.46,19.33,19.23,19.45,10.88,.13,19.61-8.53,19.63-19.44Z"/>
  </g>
</svg>