<?xml version="1.0" encoding="utf-8"?>
<!-- Generator: Adobe Illustrator 27.0.0, SVG Export Plug-In . SVG Version: 6.00 Build 0)  -->
<svg version="1.1" id="Layer_2_00000058558438516088315480000012927393001874681743_" xmlns="http://www.w3.org/2000/svg" xmlns:xlink="http://www.w3.org/1999/xlink" x="0px" y="0px" viewBox="0 0 602 614.2" style="enable-background:new 0 0 602 614.2; mix-blend-mode: difference;" xml:space="preserve">
<style type="text/css">
	.st0{fill:#231F20;}
</style>
<g id="Layer_1-2">
	<g>
		<path class="st0" d="M157.9,318.2c-1.3,5.1,3.1,9.9,8.3,9c29.6-5,47.1-20.6,57.8-52.7c28.2-84.6,62.3-167.2,93.1-251
			c6.3-17.2,15.5-24.5,33.9-23.4c21.8,1.3,43.8,1.2,65.7,0c20.9-1.1,25.5,5,17.7,25.1c-32.9,83.8-64.6,168.1-96.8,252.2
			c-10.9,28.5-10.8,27.2,18.8,30.6c91.8,10.5,170.2,49.9,237.5,112.8c12.4,11.6,9.7,20.3-0.8,30.2c-15.3,14.5-31.2,28.5-45.3,44.2
			c-12.3,13.7-20.9,11.5-34,0.2c-62.5-53.6-134.9-84.6-218-82.3c-79.4,2.2-151,28.8-210.2,83.4c-10.8,10-17.4,11.5-27.7,0.5
			C42.4,480.6,26.2,464.6,9.6,449C-1.6,438.5-2,427.6,3.2,413.9c49.5-129.6,98.9-259.2,147.5-389.1c6.7-17.9,16-26.2,35.7-24.6
			c19.4,1.5,38.9,0.2,58.4,0.3c31.3,0.2,32.3,1.4,20.8,32C237,108.4,207.7,184.1,179.3,260C172.1,279.2,163.1,297.9,157.9,318.2
			L157.9,318.2z"/>
		<path class="st0" d="M317.1,458.9c51.6,0.9,110.9,25,163.6,68.3c15.7,12.9,14.6,21.9,0.4,34.4c-15.8,13.9-30.5,29.2-44.9,44.5
			c-9.5,10.1-17.2,10.5-29.1,2.3c-77.8-53.6-134.9-53.5-211.9,0.6c-11.2,7.9-18.4,6.6-27.1-2.3c-16.4-16.8-33-33.5-50.2-49.5
			c-11-10.3-9.8-17.7,1.1-27.7C170.1,482.3,227.8,459.5,317.1,458.9L317.1,458.9z"/>
	</g>
</g>
</svg>
